#include "pitches.h"

int starWarsMelody[] = {
    NOTE_G4,  4, NOTE_G4,  4, NOTE_G4,  4, NOTE_DS4, 8, NOTE_AS4, 8, NOTE_G4, 4,
    NOTE_DS4, 8, NOTE_AS4, 8, NOTE_G4,  2, NOTE_D5,  4, NOTE_D5,  4, NOTE_D5, 4,
    NOTE_DS5, 8, NOTE_AS4, 8, NOTE_FS4, 4, NOTE_DS4, 8, NOTE_AS4, 8};

int marioMelody[] = {NOTE_E5,  8, NOTE_E5, 8, NOTE_E5, 4, NOTE_C5, 8,
                     NOTE_E5,  4, NOTE_G5, 2, NOTE_G4, 4, NOTE_C5, 8,
                     NOTE_G4,  8, NOTE_E4, 8, NOTE_A4, 8, NOTE_B4, 8,
                     NOTE_AS4, 8, NOTE_A4, 8, NOTE_G4, 4};

int terisLongMelody[] = {
    NOTE_E5, 4, NOTE_B4, 8, NOTE_C5, 8, NOTE_D5, 4, NOTE_C5, 8, NOTE_B4, 8,
    NOTE_A4, 4, NOTE_A4, 8, NOTE_C5, 8, NOTE_E5, 4, NOTE_D5, 8, NOTE_C5, 8,
    NOTE_B4, 4, NOTE_C5, 8, NOTE_D5, 4, NOTE_E5, 4, NOTE_C5, 4, NOTE_A4, 4,
    NOTE_A4, 8, NOTE_A4, 4, NOTE_B4, 8, NOTE_C5, 8,

    NOTE_D5, 4, NOTE_F5, 8, NOTE_A5, 4, NOTE_G5, 8, NOTE_F5, 8, NOTE_E5, 4,
    NOTE_C5, 8, NOTE_E5, 4, NOTE_D5, 8, NOTE_C5, 8, NOTE_B4, 4, NOTE_B4, 8,
    NOTE_C5, 8, NOTE_D5, 4, NOTE_E5, 4, NOTE_C5, 4, NOTE_A4, 4, NOTE_A4, 4,
    REST,    4,

    NOTE_E5, 4, NOTE_B4, 8, NOTE_C5, 8, NOTE_D5, 4, NOTE_C5, 8, NOTE_B4, 8,
    NOTE_A4, 4, NOTE_A4, 8, NOTE_C5, 8, NOTE_E5, 4, NOTE_D5, 8, NOTE_C5, 8,
    NOTE_B4, 4, NOTE_C5, 8, NOTE_D5, 4, NOTE_E5, 4, NOTE_C5, 4, NOTE_A4, 4,
    NOTE_A4, 8, NOTE_A4, 4, NOTE_B4, 8, NOTE_C5, 8};

int entchenMelody[] = {
    NOTE_C4, 4, NOTE_D4, 4, NOTE_E4, 4, NOTE_F4, 4, NOTE_G4, 2, NOTE_G4, 2,
    NOTE_A4, 4, NOTE_A4, 4, NOTE_G4, 4, NOTE_G4, 4, NOTE_F4, 4, NOTE_F4, 4,
    NOTE_E4, 4, NOTE_E4, 4, NOTE_D4, 4, NOTE_D4, 4, NOTE_C4, 2, NOTE_C4, 2};

int eliseMeldoy[] = {

    // starts from 1 ending on 9
    NOTE_E5,
    16,
    NOTE_DS5,
    16,  // 1
    NOTE_E5,
    16,
    NOTE_DS5,
    16,
    NOTE_E5,
    16,
    NOTE_B4,
    16,
    NOTE_D5,
    16,
    NOTE_C5,
    16,
    NOTE_A4,
    8,
    NOTE_C4,
    16,
    NOTE_E4,
    16,
    NOTE_A4,
    16,
    NOTE_B4,
    8,
    NOTE_E4,
    16,
    NOTE_GS4,
    16,
    NOTE_B4,
    16,
    NOTE_C5,
    8,
    REST,
    16,
    NOTE_E4,
    16,
    NOTE_E5,
    16,
    NOTE_DS5,
    16,

    NOTE_E5,
    16,
    NOTE_DS5,
    16,
    NOTE_E5,
    16,
    NOTE_B4,
    16,
    NOTE_D5,
    16,
    NOTE_C5,
    16,  // 6
    NOTE_A4,
    8,
    NOTE_C4,
    16,
    NOTE_E4,
    16,
    NOTE_A4,
    16,
    NOTE_B4,
    8,
    NOTE_E4,
    16,
    NOTE_C5,
    16,
    NOTE_B4,
    16,
    NOTE_A4,
    4,
    REST,
    8,  // 9  1st ending

    // repaets from 1 ending on 10
    NOTE_E5,
    16,
    NOTE_DS5,
    16,  // 1
    NOTE_E5,
    16,
    NOTE_DS5,
    16,
    NOTE_E5,
    16,
    NOTE_B4,
    16,
    NOTE_D5,
    16,
    NOTE_C5,
    16,
    NOTE_A4,
    8,
    NOTE_C4,
    16,
    NOTE_E4,
    16,
    NOTE_A4,
    16,
    NOTE_B4,
    8,
    NOTE_E4,
    16,
    NOTE_GS4,
    16,
    NOTE_B4,
    16,
    NOTE_C5,
    8,
    REST,
    16,
    NOTE_E4,
    16,
    NOTE_E5,
    16,
    NOTE_DS5,
    16,

    NOTE_E5,
    16,
    NOTE_DS5,
    16,
    NOTE_E5,
    16,
    NOTE_B4,
    16,
    NOTE_D5,
    16,
    NOTE_C5,
    16,  // 6
    NOTE_A4,
    8,
    NOTE_C4,
    16,
    NOTE_E4,
    16,
    NOTE_A4,
    16,
    NOTE_B4,
    8,
    NOTE_E4,
    16,
    NOTE_C5,
    16,
    NOTE_B4,
    16,
    NOTE_A4,
    8,
    REST,
    16,
    NOTE_B4,
    16,
    NOTE_C5,
    16,
    NOTE_D5,
    16,  // 10  2nd ending
    // continues from 11
    NOTE_E5,
    8,
    NOTE_G4,
    16,
    NOTE_F5,
    16,
    NOTE_E5,
    16,
    NOTE_D5,
    8,
    NOTE_F4,
    16,
    NOTE_E5,
    16,
    NOTE_D5,
    16,  // 12

    NOTE_C5,
    8,
    NOTE_E4,
    16,
    NOTE_D5,
    16,
    NOTE_C5,
    16,  // 13
    NOTE_B4,
    8,
    REST,
    16,
    NOTE_E4,
    16,
    NOTE_E5,
    16,
    REST,
    16,
    REST,
    16,
    NOTE_E5,
    16,
    NOTE_E6,
    16,
    REST,
    16,
    REST,
    16,
    NOTE_DS5,
    16,
    NOTE_E5,
    16,
    REST,
    16,
    REST,
    16,
    NOTE_DS5,
    16,
    NOTE_E5,
    16,
    NOTE_DS5,
    16,
    NOTE_E5,
    16,
    NOTE_DS5,
    16,
    NOTE_E5,
    16,
    NOTE_B4,
    16,
    NOTE_D5,
    16,
    NOTE_C5,
    16,
    NOTE_A4,
    8,
    REST,
    16,
    NOTE_C4,
    16,
    NOTE_E4,
    16,
    NOTE_A4,
    16,

    NOTE_B4,
    8,
    REST,
    16,
    NOTE_E4,
    16,
    NOTE_GS4,
    16,
    NOTE_B4,
    16,  // 19
    NOTE_C5,
    8,
    REST,
    16,
    NOTE_E4,
    16,
    NOTE_E5,
    16,
    NOTE_DS5,
    16,
    NOTE_E5,
    16,
    NOTE_DS5,
    16,
    NOTE_E5,
    16,
    NOTE_B4,
    16,
    NOTE_D5,
    16,
    NOTE_C5,
    16,
    NOTE_A4,
    8,
    REST,
    16,
    NOTE_C4,
    16,
    NOTE_E4,
    16,
    NOTE_A4,
    16,
    NOTE_B4,
    8,
    REST,
    16,
    NOTE_E4,
    16,
    NOTE_C5,
    16,
    NOTE_B4,
    16,
    NOTE_A4,
    8,
    REST,
    16,
    NOTE_B4,
    16,
    NOTE_C5,
    16,
    NOTE_D5,
    16,
};

// collection of melodies, stored with their length
int *melodies[] = {eliseMeldoy, starWarsMelody, marioMelody, terisLongMelody,
                   entchenMelody};
int melodyLengths[] = {
    sizeof(eliseMeldoy) / sizeof(int), sizeof(starWarsMelody) / sizeof(int),
    sizeof(marioMelody) / sizeof(int), sizeof(terisLongMelody) / sizeof(int),
    sizeof(entchenMelody) / sizeof(int)};
